<svg width="19" height="17" viewBox="0 0 19 17" fill="none" xmlns="http://www.w3.org/2000/svg">
<path d="M2.11562 10.884C1.37188 9.918 1 9.43412 1 8C1 6.565 1.37188 6.08288 2.11562 5.116C3.6005 3.1875 6.09075 1 9.75 1C13.4092 1 15.8995 3.1875 17.3844 5.116C18.1281 6.08375 18.5 6.56587 18.5 8C18.5 9.435 18.1281 9.91712 17.3844 10.884C15.8995 12.8125 13.4092 15 9.75 15C6.09075 15 3.6005 12.8125 2.11562 10.884Z" stroke="black"/>
<path d="M12.3751 8.00011C12.3751 8.6963 12.0985 9.36398 11.6062 9.85626C11.114 10.3485 10.4463 10.6251 9.75009 10.6251C9.0539 10.6251 8.38622 10.3485 7.89394 9.85626C7.40166 9.36398 7.12509 8.6963 7.12509 8.00011C7.12509 7.30392 7.40166 6.63624 7.89394 6.14395C8.38622 5.65167 9.0539 5.37511 9.75009 5.37511C10.4463 5.37511 11.114 5.65167 11.6062 6.14395C12.0985 6.63624 12.3751 7.30392 12.3751 8.00011Z" stroke="black"/>
<line x1="18.3427" y1="0.3641" x2="1.34268" y2="16.3641" stroke="black"/>
</svg>
